<svg width="35" height="38" viewBox="0 0 35 38" fill="none" xmlns="http://www.w3.org/2000/svg">
<path d="M17.5 3.05357C18.7 3.05346 19.8543 3.55301 20.7252 4.44932C21.5961 5.34563 22.1173 6.57043 22.1812 7.87143L22.1875 8.14286H29.0625C29.3 8.14294 29.5287 8.24091 29.7022 8.41697C29.8758 8.59303 29.9813 8.83405 29.9975 9.09134C30.0137 9.34863 29.9394 9.603 29.7895 9.80305C29.6396 10.0031 29.4253 10.1339 29.19 10.1691L29.0625 10.1786H27.7387L26.2137 30.6076C26.1186 31.8821 25.5851 33.071 24.7193 33.9378C23.8535 34.8046 22.7189 35.2858 21.5412 35.2857H13.4587C12.2811 35.2858 11.1465 34.8046 10.2807 33.9378C9.41494 33.071 8.88141 31.8821 8.78625 30.6076L7.26 10.1786H5.9375C5.71095 10.1786 5.49207 10.0895 5.32134 9.92782C5.1506 9.76615 5.03956 9.54283 5.00875 9.29915L5 9.16072C5.00001 8.91475 5.08205 8.67711 5.23096 8.49174C5.37986 8.30637 5.58556 8.18581 5.81 8.15236L5.9375 8.14286H12.8125C12.8125 6.7931 13.3064 5.49862 14.1854 4.54419C15.0645 3.58976 16.2568 3.05357 17.5 3.05357ZM25.8587 10.1786H9.14125L10.655 30.4434C10.7122 31.2081 11.0323 31.9214 11.5518 32.4414C12.0714 32.9615 12.7521 33.2501 13.4587 33.25H21.5412C22.2479 33.2501 22.9286 32.9615 23.4482 32.4414C23.9677 31.9214 24.2878 31.2081 24.345 30.4434L25.8575 10.1786H25.8587ZM14.6875 15.2679C14.914 15.2679 15.1329 15.3569 15.3037 15.5186C15.4744 15.6803 15.5854 15.9036 15.6162 16.1473L15.625 16.2857V27.1429C15.6249 27.4008 15.5347 27.649 15.3725 27.8374C15.2104 28.0259 14.9884 28.1405 14.7514 28.158C14.5144 28.1756 14.2801 28.0949 14.0959 27.9321C13.9116 27.7694 13.7911 27.5368 13.7587 27.2813L13.75 27.1429V16.2857C13.75 16.0158 13.8488 15.7569 14.0246 15.566C14.2004 15.3751 14.4389 15.2679 14.6875 15.2679ZM20.3125 15.2679C20.539 15.2679 20.7579 15.3569 20.9287 15.5186C21.0994 15.6803 21.2104 15.9036 21.2412 16.1473L21.25 16.2857V27.1429C21.2499 27.4008 21.1597 27.649 20.9975 27.8374C20.8354 28.0259 20.6134 28.1405 20.3764 28.158C20.1394 28.1756 19.9051 28.0949 19.7209 27.9321C19.5366 27.7694 19.4161 27.5368 19.3837 27.2813L19.375 27.1429V16.2857C19.375 16.0158 19.4738 15.7569 19.6496 15.566C19.8254 15.3751 20.0639 15.2679 20.3125 15.2679ZM17.5 5.08929C16.7873 5.08919 16.1012 5.38283 15.5803 5.91086C15.0594 6.43889 14.7425 7.16193 14.6937 7.93386L14.6875 8.14286H20.3125L20.3062 7.93386C20.2575 7.16193 19.9406 6.43889 19.4197 5.91086C18.8988 5.38283 18.2127 5.08919 17.5 5.08929Z" fill="#FF0000"/>
</svg>
