<svg width="38" height="44" viewBox="0 0 38 44" fill="none" xmlns="http://www.w3.org/2000/svg">
<path d="M24.1 18.85C24.1 18.0146 24.4319 17.2134 25.0226 16.6226C25.6134 16.0319 26.4146 15.7 27.25 15.7C28.0854 15.7 28.8866 16.0319 29.4774 16.6226C30.0681 17.2134 30.4 18.0146 30.4 18.85V22M11.5 24.1V6.25001C11.5 5.41457 11.8319 4.61336 12.4226 4.02262C13.0134 3.43188 13.8146 3.10001 14.65 3.10001C15.4854 3.10001 16.2866 3.43188 16.8774 4.02262C17.4681 4.61336 17.8 5.41457 17.8 6.25001V22L11.5 24.1ZM17.8 20.95V16.75C17.8 15.9146 18.1319 15.1134 18.7226 14.5226C19.3134 13.9319 20.1146 13.6 20.95 13.6C21.7854 13.6 22.5866 13.9319 23.1774 14.5226C23.7681 15.1134 24.1 15.9146 24.1 16.75V22L17.8 20.95Z" stroke="#2B60DE" stroke-width="2" stroke-linecap="round" stroke-linejoin="round"/>
<path d="M26.2 9.4H28.3M30.4 20.95C30.4 20.1146 30.7319 19.3134 31.3226 18.7226C31.9134 18.1319 32.7146 17.8 33.55 17.8C34.3854 17.8 35.1866 18.1319 35.7774 18.7226C36.3681 19.3134 36.7 20.1146 36.7 20.95V30.4C36.7 33.7417 35.3725 36.9466 33.0095 39.3095C30.6466 41.6725 27.4417 43 24.1 43H19.9H20.3368C18.2501 43.0004 16.196 42.4824 14.3589 41.4928C12.5218 40.5031 10.9593 39.0727 9.8116 37.33L9.4 36.7C8.7448 35.6941 6.4453 31.6852 2.4994 24.6712C2.09714 23.9562 1.98969 23.1125 2.1999 22.3195C2.41011 21.5265 2.92139 20.8468 3.625 20.425C4.37444 19.9753 5.25265 19.7889 6.12014 19.8955C6.98762 20.002 7.79464 20.3953 8.413 21.013L11.5 24.1L30.4 20.95ZM5.2 3.1L3.1 1L5.2 3.1ZM3.1 11.5H1H3.1ZM24.1 3.1L26.2 1L24.1 3.1Z" stroke="#2B60DE" stroke-width="2" stroke-linecap="round" stroke-linejoin="round"/>
</svg>
