<svg width="38" height="38" viewBox="0 0 38 38" fill="none" xmlns="http://www.w3.org/2000/svg">
<path d="M36.48 34.39H1.52C0.67925 34.39 0 35.0692 0 35.91V37.62C0 37.829 0.171 38 0.38 38H37.62C37.829 38 38 37.829 38 37.62V35.91C38 35.0692 37.3208 34.39 36.48 34.39ZM6.92075 30.4C7.01575 30.4 7.11075 30.3905 7.20575 30.3762L15.1952 28.975C15.2902 28.956 15.3805 28.9132 15.447 28.842L35.5822 8.70675C35.6263 8.66281 35.6612 8.61061 35.6851 8.55315C35.7089 8.49568 35.7212 8.43408 35.7212 8.37187C35.7212 8.30966 35.7089 8.24806 35.6851 8.1906C35.6612 8.13314 35.6263 8.08094 35.5822 8.037L27.6877 0.13775C27.5975 0.0475001 27.4787 0 27.3505 0C27.2222 0 27.1035 0.0475001 27.0133 0.13775L6.878 20.273C6.80675 20.3442 6.764 20.4297 6.745 20.5247L5.34375 28.5142C5.29754 28.7687 5.31405 29.0306 5.39185 29.2772C5.46965 29.5239 5.6064 29.7479 5.79025 29.9297C6.10375 30.2337 6.498 30.4 6.92075 30.4Z" fill="#FFEF00"/>
</svg>
